HIERARCHY
ROOT handbone
{
	OFFSET -1.355774 -0.224670 0.000001
	CHANNELS 6 Xposition Yposition Zposition Xrotation Yrotation Zrotation
	JOINT indexlower
	{
		OFFSET -27.610151 27.215357 10.031754
		CHANNELS 6 Xposition Yposition Zposition Xrotation Yrotation Zrotation
		JOINT indexmiddle
		{
			OFFSET -36.039116 7.156580 -0.237765
			CHANNELS 3 Xrotation Yrotation Zrotation
			JOINT indextop
			{
				OFFSET -34.550667 3.887501 -0.676123
				CHANNELS 3 Xrotation Yrotation Zrotation
				End indexSite
				{
					OFFSET -20.232880 1.910034 -2.113411
				}
			}
		}
	}
	JOINT middlelower
	{
		OFFSET -33.072830 4.725623 9.122853
		CHANNELS 6 Xposition Yposition Zposition Xrotation Yrotation Zrotation
		JOINT middlemiddle
		{
			OFFSET -41.604553 -0.890238 -1.414906
			CHANNELS 3 Xrotation Yrotation Zrotation
			JOINT middletop
			{
				OFFSET -32.933449 -1.193488 0.545149
				CHANNELS 3 Xrotation Yrotation Zrotation
				End middleSite
				{
					OFFSET -19.312828 -0.193849 -2.766104
				}
			}
		}
	}
	JOINT pinkylower
	{
		OFFSET -16.568052 -37.329994 13.313303
		CHANNELS 6 Xposition Yposition Zposition Xrotation Yrotation Zrotation
		JOINT pinkymiddle
		{
			OFFSET -31.957144 -12.526093 0.604743
			CHANNELS 3 Xrotation Yrotation Zrotation
			JOINT pinkytop
			{
				OFFSET -24.235508 -9.966892 -0.428967
				CHANNELS 3 Xrotation Yrotation Zrotation
				End pinkySite
				{
					OFFSET -15.827278 -6.961704 -0.213587
				}
			}
		}
	}
	JOINT ringlower
	{
		OFFSET -27.751472 -17.756046 9.423440
		CHANNELS 6 Xposition Yposition Zposition Xrotation Yrotation Zrotation
		JOINT ringmiddle
		{
			OFFSET -37.834938 -5.653360 -4.089293
			CHANNELS 3 Xrotation Yrotation Zrotation
			JOINT ringtop
			{
				OFFSET -33.353310 -5.708067 -1.338019
				CHANNELS 3 Xrotation Yrotation Zrotation
				End ringSite
				{
					OFFSET -19.397255 -2.675426 -1.580985
				}
			}
		}
	}
	JOINT thumblower
	{
		OFFSET 47.402916 42.189899 11.712247
		CHANNELS 6 Xposition Yposition Zposition Xrotation Yrotation Zrotation
		JOINT thumbmiddle
		{
			OFFSET -27.663914 21.992798 7.593588
			CHANNELS 3 Xrotation Yrotation Zrotation
			JOINT thumbtop
			{
				OFFSET -29.442574 27.200466 4.000887
				CHANNELS 3 Xrotation Yrotation Zrotation
				End thumbSite
				{
					OFFSET -13.483565 17.937134 4.214972
				}
			}
		}
	}
	JOINT wrist
	{
		OFFSET 79.446518 -5.274386 13.494767
		CHANNELS 3 Xrotation Yrotation Zrotation
		End Site
		{
			OFFSET 182.085037 -23.553453 82.556168
		}
	}
}
MOTION
Frames: 15
Frame Time: 0.016667
-1.35577 -0.22467 -0.00000 0 0 0 0 0 0  0 0 0 0 0 0 0 0 0 -36.47891 2.50094 10.39955 0 0 0 0 0 0 0 0 0 -22.98663 -34.68987 38.30723 0 0 0 0 0 0 0 0 0 -30.70927 -14.37198 24.05573 0 0 0 0 0 0 0 0 0 34.38391 35.78230 39.04551 0 0 0 0 0 0 0 0 0 0 0 0 
-1.35577 -0.22467 -0.00000 1.78 -14.51 -2.28 -32.39881 27.99063 15.31550 -9.14 41.56 15.77 1.32 9.17 -2.83 10.17 13.28 0.13 -36.81564 1.97739 10.57829 -16.20 66.26 8.77 -1.23 21.84 2.43 -0.28 22.93 -2.27 -23.09323 -35.66573 37.84778 -19.98 111.78 -31.62 -22.13 51.16 0.06 -8.23 10.37 -9.28 -30.62936 -14.72414 24.04171 47.34 115.70 -69.75 -13.79 38.46 17.46 10.57 22.73 -5.92 34.32804 35.22951 39.08298 59.84 15.75 17.84 -2.98 -5.37 11.44 -18.30 -5.97 -18.50 2.44 -19.32 -5.60 
-1.35577 -0.22467 -0.00000 1.33 -15.61 -2.94 -32.21854 27.71887 15.25606 -9.58 42.92 16.39 1.46 10.20 -2.82 10.18 13.31 0.34 -36.94856 1.54978 10.58943 -16.93 68.53 9.25 -1.23 23.52 1.90 -0.82 23.50 -2.01 -22.89141 -36.19395 37.22012 -20.24 111.94 -31.12 -22.96 52.97 0.01 -8.45 10.57 -9.46 -30.56824 -14.91254 23.62321 45.58 115.39 -67.91 -15.69 41.75 19.04 10.93 23.64 -6.14 34.54209 34.94188 38.88417 59.74 15.77 17.82 -3.01 -5.42 11.20 -18.51 -6.02 -18.68 2.42 -18.19 -5.30 
-1.35577 -0.22467 -0.00000 0.65 -17.00 -3.71 -32.39215 27.76819 15.17401 -10.12 44.41 17.24 1.61 11.69 -2.39 10.34 13.15 0.21 -37.32024 1.41249 10.58246 -18.31 70.75 10.43 -1.30 25.64 1.63 -1.05 24.18 -2.05 -22.91597 -36.49700 36.84280 -20.62 112.08 -30.51 -23.90 55.02 -0.11 -8.71 10.39 -9.34 -30.59590 -15.15306 23.35785 43.67 115.08 -66.05 -18.06 45.50 20.92 11.09 24.73 -6.11 34.38622 34.61034 38.80741 59.53 15.76 17.85 -3.10 -5.44 11.04 -18.83 -6.16 -18.77 2.47 -16.71 -4.99 
-1.35577 -0.22467 -0.00000 -0.20 -18.40 -4.37 -32.34155 27.77580 15.34645 -10.47 45.61 17.91 1.70 12.95 -1.76 10.57 13.35 -0.10 -37.39634 1.21334 10.80980 -20.03 72.18 12.07 -1.39 27.72 1.55 -1.10 25.10 -2.24 -23.05681 -37.04128 36.40276 -20.99 112.32 -30.01 -24.47 56.66 -0.50 -8.91 10.66 -9.11 -30.69612 -15.54812 23.15442 42.02 114.83 -64.49 -20.60 48.95 23.02 11.07 25.78 -5.94 34.42076 34.25272 38.70190 59.23 15.69 17.87 -3.28 -5.46 10.90 -18.99 -6.20 -18.88 2.61 -15.20 -4.87 
-1.35577 -0.22467 -0.00000 -0.97 -19.52 -4.86 -32.40813 27.93137 15.17504 -10.58 46.35 18.27 1.80 14.14 -1.39 10.66 13.52 -0.16 -37.39479 1.29489 10.87487 -21.29 72.75 13.37 -1.49 29.64 1.56 -1.11 25.76 -2.40 -23.33386 -37.18353 35.91494 -21.17 112.51 -29.76 -25.23 57.90 -0.26 -8.66 11.16 -9.21 -30.76395 -15.72660 22.86211 41.00 114.67 -63.52 -22.84 51.17 25.24 11.14 26.59 -6.05 34.43122 34.13152 38.51384 58.94 15.55 17.89 -3.60 -5.49 10.69 -19.47 -6.44 -18.96 2.80 -14.04 -4.86 
-1.35577 -0.22467 -0.00000 -1.88 -20.84 -5.27 -32.27080 27.80734 15.04070 -10.44 46.89 18.37 1.92 15.70 -0.90 10.75 13.75 -0.24 -37.45673 1.04493 10.58480 -22.59 73.22 14.65 -1.78 31.97 2.15 -0.59 26.68 -2.89 -23.34411 -37.69513 35.63935 -21.50 112.65 -29.32 -25.86 59.58 -0.59 -8.40 11.49 -8.96 -30.69436 -15.85835 22.71448 40.24 114.40 -62.70 -25.01 52.98 27.47 10.76 27.05 -6.23 34.86239 33.81319 38.31078 58.56 15.27 17.87 -4.23 -5.58 10.33 -19.48 -6.77 -18.19 3.07 -12.66 -4.96 
-1.35577 -0.22467 -0.00000 -2.77 -22.22 -5.55 -32.27258 27.58348 14.72142 -10.20 47.20 18.32 2.08 17.67 -0.47 10.78 13.94 -0.11 -37.67855 0.70048 10.27381 -24.38 73.76 16.39 -2.30 34.88 3.29 0.51 27.64 -3.64 -23.42121 -37.99295 35.16103 -21.71 112.68 -28.87 -26.79 60.79 -0.11 -7.83 12.07 -9.16 -30.65681 -16.13028 22.41983 39.84 113.92 -62.12 -26.34 54.40 28.49 9.60 27.26 -5.91 34.87768 33.43835 37.67604 58.12 15.01 17.78 -5.04 -5.75 9.94 -19.25 -6.69 -18.08 3.34 -11.20 -5.15 
-1.35577 -0.22467 -0.00000 -3.50 -23.36 -5.76 -32.31031 27.58422 14.39625 -10.14 47.38 18.41 2.24 19.67 -0.04 10.80 14.23 0.12 -37.93320 0.76454 10.11873 -26.63 74.38 18.63 -2.73 37.22 4.10 1.17 28.90 -4.01 -23.62986 -38.04202 34.66483 -21.67 112.65 -28.66 -27.23 61.34 0.14 -7.51 12.62 -9.33 -30.52839 -15.99858 22.17062 39.80 113.42 -61.91 -27.39 55.41 29.36 8.79 27.66 -5.71 34.86137 33.31982 37.35873 57.63 14.81 17.73 -5.77 -5.90 9.57 -19.44 -6.73 -18.24 3.55 -10.01 -5.32 
-1.35577 -0.22467 -0.00000 -4.45 -24.89 -5.95 -32.57507 27.82271 14.20656 -10.34 47.68 18.85 2.33 22.86 1.19 11.14 14.91 0.05 -38.36508 0.60002 9.95009 -30.52 75.49 22.55 -2.81 40.51 3.56 0.44 30.89 -2.93 -23.88345 -38.31903 33.98576 -21.49 112.43 -28.50 -27.43 61.91 -0.01 -7.44 13.25 -9.37 -30.47516 -16.05612 21.65147 40.17 112.67 -62.15 -28.85 56.71 30.56 7.92 28.80 -5.32 35.04112 33.35781 37.09806 56.60 14.53 17.69 -6.94 -6.16 9.03 -19.74 -6.88 -18.30 3.87 -8.45 -5.64 
-1.35577 -0.22467 -0.00000 -5.13 -26.12 -5.91 -32.54005 28.07746 14.16073 -10.61 48.13 19.35 2.37 25.88 2.33 11.51 15.43 -0.02 -38.62666 0.55306 10.06054 -33.45 76.35 25.44 -2.70 43.93 2.59 -0.68 32.45 -1.69 -24.11775 -38.49612 33.57711 -21.14 111.91 -28.53 -27.73 62.51 -0.02 -7.32 13.69 -9.35 -30.43597 -16.18918 21.23363 41.51 111.84 -63.47 -30.73 57.92 32.41 7.79 30.35 -5.09 35.24578 33.74283 36.97990 55.40 14.23 17.58 -8.21 -6.45 8.53 -19.63 -6.91 -18.07 4.15 -7.23 -6.14 
-1.35577 -0.22467 -0.00000 -5.62 -27.14 -5.74 -32.41510 28.02458 14.05814 -10.79 48.72 19.75 2.43 28.22 2.92 11.68 16.12 0.18 -38.74421 0.35554 10.08341 -34.85 76.88 26.81 -2.87 47.09 2.48 -0.90 33.63 -1.38 -24.49638 -38.74586 33.16121 -20.53 111.21 -28.77 -28.91 63.28 1.12 -6.65 13.87 -9.62 -30.21692 -16.48182 20.88523 43.93 110.96 -65.97 -33.70 59.44 35.49 8.35 31.65 -5.10 35.54685 33.82067 36.67889 54.23 13.91 17.31 -9.34 -6.59 8.12 -19.73 -7.11 -17.75 4.27 -6.24 -6.64 
-1.35577 -0.22467 -0.00000 -6.13 -28.44 -5.44 -32.45636 27.99141 13.99219 -10.91 49.60 20.15 2.52 31.04 3.48 11.75 16.79 0.44 -38.84976 0.26365 9.79235 -35.16 77.14 27.15 -3.09 50.69 2.41 -0.93 35.43 -1.24 -24.97448 -39.15393 32.23534 -19.44 110.01 -29.43 -29.89 63.80 2.12 -6.10 14.34 -9.90 -30.17624 -17.20424 20.02165 48.81 109.93 -71.11 -38.41 61.68 40.13 9.27 33.50 -4.99 35.70351 33.98196 36.01701 52.67 13.52 16.71 -10.69 -6.68 7.66 -19.69 -7.18 -17.53 4.25 -4.96 -7.40 
-1.35577 -0.22467 -0.00000 -6.48 -29.82 -5.04 -32.74439 28.20161 13.43982 -10.88 50.43 20.33 2.54 33.91 4.21 11.89 17.26 0.43 -39.11819 0.43755 9.01679 -34.00 76.83 26.13 -3.33 54.46 2.33 -0.77 37.16 -1.28 -25.80993 -39.75156 30.79736 -17.72 108.41 -30.76 -29.62 64.36 1.30 -6.33 14.80 -9.56 -30.46388 -17.87057 18.41387 56.19 109.24 -78.84 -44.53 63.90 46.19 10.82 35.68 -5.29 35.72355 34.31416 34.83915 50.95 13.15 15.86 -12.04 -6.70 7.25 -19.54 -7.00 -17.75 3.93 -3.61 -8.10 
-1.35577 -0.22467 -0.00000 -6.68 -31.47 -4.49 -33.16924 28.37032 12.81984 -10.44 51.03 20.08 2.51 37.23 5.04 12.10 18.02 0.33 -39.21878 0.57626 7.93055 -31.26 75.58 23.71 -3.81 58.79 2.63 0.01 39.50 -1.74 -26.67730 -40.40407 28.91076 -14.80 106.02 -33.04 -30.11 65.76 0.92 -6.15 15.13 -9.35 -31.15371 -18.85168 16.06489 67.07 108.97 -90.10 -52.65 65.90 54.34 12.94 37.88 -6.13 36.00743 34.66010 33.47902 48.77 12.79 14.68 -13.44 -6.72 6.77 -18.94 -6.66 -17.73 3.37 -1.89 -8.95 
